<svg width="65" height="65" viewBox="0 0 65 65" fill="none" xmlns="http://www.w3.org/2000/svg">
<path d="M8.125 32.5C8.125 35.701 8.75548 38.8706 9.98044 41.8279C11.2054 44.7852 13.0008 47.4723 15.2643 49.7357C17.5277 51.9992 20.2148 53.7946 23.1721 55.0196C26.1294 56.2445 29.299 56.875 32.5 56.875C35.701 56.875 38.8706 56.2445 41.8279 55.0196C44.7852 53.7946 47.4723 51.9992 49.7357 49.7357C51.9992 47.4723 53.7946 44.7852 55.0196 41.8279C56.2445 38.8706 56.875 35.701 56.875 32.5C56.875 29.299 56.2445 26.1294 55.0196 23.1721C53.7946 20.2148 51.9992 17.5277 49.7357 15.2643C47.4723 13.0008 44.7852 11.2054 41.8279 9.98044C38.8706 8.75548 35.701 8.125 32.5 8.125C29.299 8.125 26.1294 8.75548 23.1721 9.98044C20.2148 11.2054 17.5277 13.0008 15.2643 15.2643C13.0008 17.5277 11.2054 20.2148 9.98044 23.1721C8.75548 26.1294 8.125 29.299 8.125 32.5Z" stroke="#044B96" stroke-width="2" stroke-linecap="round" stroke-linejoin="round"/>
<path d="M16.7051 51.0494C17.3754 48.8183 18.7471 46.8628 20.6166 45.4728C22.4861 44.0829 24.7538 43.3326 27.0834 43.3333H37.9167C40.2493 43.3325 42.5199 44.0846 44.3907 45.4777C46.2616 46.8709 47.6328 48.8306 48.3005 51.0656M24.3751 27.0833C24.3751 29.2382 25.2311 31.3048 26.7548 32.8286C28.2786 34.3523 30.3452 35.2083 32.5001 35.2083C34.655 35.2083 36.7216 34.3523 38.2453 32.8286C39.7691 31.3048 40.6251 29.2382 40.6251 27.0833C40.6251 24.9284 39.7691 22.8618 38.2453 21.3381C36.7216 19.8143 34.655 18.9583 32.5001 18.9583C30.3452 18.9583 28.2786 19.8143 26.7548 21.3381C25.2311 22.8618 24.3751 24.9284 24.3751 27.0833Z" stroke="#044B96" stroke-width="2" stroke-linecap="round" stroke-linejoin="round"/>
</svg>
