<svg width="21" height="21" viewBox="0 0 21 21" fill="none" xmlns="http://www.w3.org/2000/svg">
<path d="M19.2921 8.23773C18.9534 7.88375 18.603 7.51898 18.4709 7.19824C18.3487 6.90445 18.3416 6.4175 18.3344 5.94582C18.3209 5.06894 18.3065 4.07527 17.6156 3.38437C16.9247 2.69348 15.9311 2.6791 15.0542 2.66562C14.5825 2.65844 14.0955 2.65125 13.8018 2.52906C13.4819 2.39699 13.1162 2.0466 12.7623 1.70789C12.1423 1.11223 11.438 0.4375 10.5 0.4375C9.56203 0.4375 8.85855 1.11223 8.23773 1.70789C7.88375 2.0466 7.51898 2.39699 7.19824 2.52906C6.90625 2.65125 6.4175 2.65844 5.94582 2.66562C5.06894 2.6791 4.07527 2.69348 3.38437 3.38437C2.69348 4.07527 2.68359 5.06894 2.66562 5.94582C2.65844 6.4175 2.65125 6.90445 2.52906 7.19824C2.39699 7.51809 2.0466 7.88375 1.70789 8.23773C1.11223 8.85766 0.4375 9.56203 0.4375 10.5C0.4375 11.438 1.11223 12.1414 1.70789 12.7623C2.0466 13.1162 2.39699 13.481 2.52906 13.8018C2.65125 14.0955 2.65844 14.5825 2.66562 15.0542C2.6791 15.9311 2.69348 16.9247 3.38437 17.6156C4.07527 18.3065 5.06894 18.3209 5.94582 18.3344C6.4175 18.3416 6.90445 18.3487 7.19824 18.4709C7.51809 18.603 7.88375 18.9534 8.23773 19.2921C8.85766 19.8878 9.56203 20.5625 10.5 20.5625C11.438 20.5625 12.1414 19.8878 12.7623 19.2921C13.1162 18.9534 13.481 18.603 13.8018 18.4709C14.0955 18.3487 14.5825 18.3416 15.0542 18.3344C15.9311 18.3209 16.9247 18.3065 17.6156 17.6156C18.3065 16.9247 18.3209 15.9311 18.3344 15.0542C18.3416 14.5825 18.3487 14.0955 18.4709 13.8018C18.603 13.4819 18.9534 13.1162 19.2921 12.7623C19.8878 12.1423 20.5625 11.438 20.5625 10.5C20.5625 9.56203 19.8878 8.85855 19.2921 8.23773ZM14.6023 8.85227L9.57102 13.8835C9.50426 13.9503 9.42499 14.0034 9.33774 14.0395C9.25048 14.0757 9.15695 14.0943 9.0625 14.0943C8.96805 14.0943 8.87452 14.0757 8.78726 14.0395C8.70001 14.0034 8.62074 13.9503 8.55398 13.8835L6.39773 11.7273C6.33096 11.6605 6.27798 11.5812 6.24184 11.494C6.2057 11.4067 6.1871 11.3132 6.1871 11.2188C6.1871 11.1243 6.2057 11.0308 6.24184 10.9435C6.27798 10.8563 6.33096 10.777 6.39773 10.7102C6.5326 10.5754 6.71552 10.4996 6.90625 10.4996C7.00069 10.4996 7.09421 10.5182 7.18146 10.5543C7.26871 10.5905 7.34799 10.6435 7.41477 10.7102L9.0625 12.3589L13.5852 7.83523C13.652 7.76846 13.7313 7.71548 13.8185 7.67934C13.9058 7.6432 13.9993 7.6246 14.0938 7.6246C14.1882 7.6246 14.2817 7.6432 14.369 7.67934C14.4562 7.71548 14.5355 7.76846 14.6023 7.83523C14.669 7.90201 14.722 7.98129 14.7582 8.06854C14.7943 8.15579 14.8129 8.24931 14.8129 8.34375C14.8129 8.43819 14.7943 8.53171 14.7582 8.61896C14.722 8.70621 14.669 8.78549 14.6023 8.85227Z" fill="#61B0DD"/>
</svg>
