<svg width="10" height="7" viewBox="0 0 10 7" fill="none" xmlns="http://www.w3.org/2000/svg">
<path d="M0.84338 1.10621C0.795645 1.05734 0.739492 1.01914 0.678128 0.993778C0.616763 0.96842 0.551389 0.956403 0.485738 0.958415C0.420087 0.960427 0.355445 0.976428 0.295502 1.0055C0.235559 1.03458 0.181489 1.07616 0.13638 1.12787C0.0912713 1.17959 0.0560062 1.24042 0.0325985 1.3069C0.00919071 1.37338 -0.00190131 1.4442 -4.41397e-05 1.51532C0.00181303 1.58644 0.0165829 1.65647 0.0434223 1.72141C0.0702617 1.78635 0.108645 1.84492 0.15638 1.89379L4.65638 6.49796C4.74921 6.59304 4.87212 6.64602 4.99988 6.64602C5.12764 6.64602 5.25055 6.59304 5.34338 6.49796L9.84388 1.89379C9.89266 1.84525 9.93205 1.78668 9.95976 1.72151C9.98748 1.65633 10.003 1.58584 10.0053 1.51412C10.0077 1.44241 9.99684 1.3709 9.97346 1.30376C9.95009 1.23662 9.91464 1.17518 9.86916 1.123C9.82368 1.07083 9.76909 1.02896 9.70855 0.99984C9.64801 0.970716 9.58274 0.954915 9.51651 0.953352C9.45029 0.95179 9.38444 0.964498 9.32279 0.990738C9.26114 1.01698 9.20491 1.05623 9.15738 1.10621L4.99988 5.35938L0.84338 1.10621Z" fill="#414141"/>
</svg>
