<svg width="28" height="28" viewBox="0 0 28 28" fill="none" xmlns="http://www.w3.org/2000/svg">
<g clip-path="url(#clip0_39_662)">
<path d="M14 4.55811C8.79371 4.55811 4.55811 8.79371 4.55811 14C4.55811 19.2062 8.79371 23.4418 14 23.4418C19.2062 23.4418 23.4418 19.2062 23.4418 14C23.4418 8.79371 19.2062 4.55811 14 4.55811ZM18.4228 11.928L12.8975 17.4533C12.5164 17.8345 11.8974 17.8348 11.5162 17.4533L9.57711 15.5142C9.19566 15.1328 9.19566 14.5143 9.57711 14.1329C9.95855 13.7515 10.577 13.7515 10.9584 14.1329L12.2068 15.3813L17.0415 10.5467C17.4228 10.1653 18.0413 10.1653 18.4228 10.5467C18.8043 10.9281 18.8043 11.5465 18.4228 11.928Z" fill="#044B95"/>
<path d="M14 0C6.26221 0 0 6.2615 0 14C0 21.7378 6.2615 28 14 28C21.7378 28 28 21.7385 28 14C28 6.26221 21.7385 0 14 0ZM14 25.3953C7.71662 25.3953 2.60466 20.2834 2.60466 14C2.60466 7.71662 7.71662 2.60466 14 2.60466C20.2834 2.60466 25.3953 7.71662 25.3953 14C25.3953 20.2834 20.2834 25.3953 14 25.3953Z" fill="#044B95"/>
</g>
<defs>
<clipPath id="clip0_39_662">
<rect width="28" height="28" fill="white"/>
</clipPath>
</defs>
</svg>
