<svg width="15" height="15" viewBox="0 0 15 15" fill="none" xmlns="http://www.w3.org/2000/svg">
<path fill-rule="evenodd" clip-rule="evenodd" d="M7.5 1.25001C4.04813 1.25001 1.25 4.04814 1.25 7.50001C1.24885 8.42094 1.45185 9.33068 1.84438 10.1638L1.26313 12.9994C1.24244 13.1006 1.24717 13.2054 1.27691 13.3044C1.30664 13.4034 1.36046 13.4934 1.43353 13.5665C1.5066 13.6396 1.59665 13.6934 1.69562 13.7231C1.79459 13.7529 1.89938 13.7576 2.00063 13.7369L4.83625 13.1556C5.645 13.5369 6.54875 13.7494 7.5 13.7494C10.9519 13.7494 13.75 10.9519 13.75 7.49939C13.75 4.04814 10.9519 1.24939 7.5 1.24939" fill="#A5A5A5"/>
</svg>
