<svg width="13" height="13" viewBox="0 0 13 13" fill="none" xmlns="http://www.w3.org/2000/svg">
<g clip-path="url(#clip0_39_538)">
<path d="M1.9043 11.0955C1.28348 10.4959 0.788295 9.77869 0.447636 8.98567C0.106978 8.19264 -0.0723329 7.33971 -0.0798327 6.47665C-0.0873325 5.61358 0.0771285 4.75766 0.403954 3.95884C0.73078 3.16001 1.21343 2.43427 1.82373 1.82397C2.43403 1.21367 3.15977 0.731024 3.95859 0.404198C4.75742 0.0773727 5.61334 -0.0870884 6.4764 -0.0795886C7.33947 -0.0720888 8.1924 0.107222 8.98542 0.44788C9.77845 0.788539 10.4957 1.28372 11.0953 1.90454C12.2793 3.13045 12.9345 4.77237 12.9197 6.47665C12.9049 8.18093 12.2213 9.81121 11.0161 11.0164C9.81096 12.2215 8.18068 12.9051 6.4764 12.9199C4.77212 12.9347 3.13021 12.2796 1.9043 11.0955ZM7.40979 6.50004L9.24929 4.66054L8.33279 3.74404L6.49979 5.58354L4.6603 3.74404L3.7438 4.66054L5.58329 6.50004L3.7438 8.33954L4.6603 9.25604L6.49979 7.41654L8.33929 9.25604L9.25579 8.33954L7.41629 6.50004H7.40979Z" fill="#A5A5A5"/>
</g>
<defs>
<clipPath id="clip0_39_538">
<rect width="13" height="13" fill="white"/>
</clipPath>
</defs>
</svg>
