<svg width="17" height="16" viewBox="0 0 17 16" fill="none" xmlns="http://www.w3.org/2000/svg">
<path d="M8.64002 0.625H8.36002L6.05877 5.21875H10.9413L8.64002 0.625ZM12.4025 5.21875H16.9175L15.1063 1.59625C14.9614 1.30469 14.738 1.05932 14.4614 0.887744C14.1847 0.716164 13.8656 0.625173 13.54 0.625H10.1013L12.4025 5.21875ZM16.7075 6.53125H9.15627V15.5875L16.7075 6.53125ZM7.84377 15.5875V6.53125H0.292519L7.84377 15.5875ZM4.59752 5.21875L6.89002 0.625H3.46002C3.13445 0.625173 2.81538 0.716164 2.53868 0.887744C2.26199 1.05932 2.03865 1.30469 1.89377 1.59625L0.0825195 5.21875H4.59752Z" fill="white"/>
</svg>
