<svg width="28" height="28" viewBox="0 0 28 28" fill="none" xmlns="http://www.w3.org/2000/svg">
<g clip-path="url(#clip0_35_428)">
<path d="M27.718 3.9393L24.3401 0.563063H1.37883C1.09773 0.563063 0.816859 0.670305 0.602812 0.884625C0.388492 1.09895 0.28125 1.38009 0.28125 1.66053V26.9007C0.28125 27.1809 0.388492 27.4623 0.602812 27.6766C0.816859 27.891 1.09773 27.9982 1.37883 27.9982L26.6214 28C26.9025 28 27.1831 27.8928 27.3974 27.6784C27.6117 27.4641 27.719 26.777 27.719 26.4969L27.718 3.9393Z" fill="#3F4A5A"/>
<path d="M21.3851 9.96324H6.39806C6.11751 9.96324 5.83636 9.856 5.62248 9.64179C5.40816 9.42747 5.30103 9.14605 5.30103 8.86588V0.563063H21.3852V9.96324H21.3851Z" fill="#262E37"/>
<path d="M7.87183 0V8.86594C7.87183 9.1461 7.97907 9.42747 8.19339 9.64184C8.40771 9.85616 8.68886 9.9633 8.9694 9.9633H21.6023C21.8834 9.9633 22.1646 9.85605 22.3789 9.64184C22.5932 9.42752 22.7004 9.1461 22.7004 8.86594V0H7.87183ZM20.1905 7.94445H18.426V2.02245H20.1905V7.94445Z" fill="#E6E5E5"/>
<path d="M5.30029 27.998V16.5555C5.30029 16.2741 5.40754 15.994 5.62186 15.7796C5.8359 15.5653 6.11705 15.4581 6.39776 15.4581H21.602C21.8831 15.4581 22.1637 15.5653 22.378 15.7796C22.5924 15.994 22.6996 16.2741 22.6996 16.5555V27.998H5.30029Z" fill="#E66847"/>
<path d="M21.3849 18.3722H6.61353V19.1481H21.3849V18.3722Z" fill="white"/>
<path d="M21.3849 20.181H6.61353V20.9583H21.3849V20.181Z" fill="white"/>
<path d="M21.3849 21.9912H6.61353V22.7697H21.3849V21.9912Z" fill="white"/>
<path d="M21.3849 23.8014H6.61353V24.5772H21.3849V23.8014Z" fill="white"/>
<path d="M3.29657 24.9816H2.01611V26.262H3.29657V24.9816Z" fill="#262E37"/>
<path d="M25.9809 24.9816H24.7002V26.262H25.9809V24.9816Z" fill="#262E37"/>
</g>
<defs>
<clipPath id="clip0_35_428">
<rect width="28" height="28" fill="white"/>
</clipPath>
</defs>
</svg>
