<svg width="12" height="12" viewBox="0 0 12 12" fill="none" xmlns="http://www.w3.org/2000/svg">
<path d="M1.84313 3.16124C1.79542 3.10973 1.7393 3.06947 1.67797 3.04274C1.61665 3.01602 1.55131 3.00335 1.4857 3.00547C1.42008 3.00759 1.35548 3.02446 1.29557 3.0551C1.23566 3.08575 1.18163 3.12957 1.13654 3.18408C1.09146 3.23858 1.05622 3.30269 1.03282 3.37276C1.00943 3.44283 0.998344 3.51747 1.0002 3.59243C1.00206 3.66739 1.01682 3.7412 1.04364 3.80964C1.07046 3.87808 1.10883 3.93982 1.15653 3.99132L5.65389 8.84395C5.74667 8.94416 5.86951 9 5.99719 9C6.12487 9 6.24771 8.94416 6.34049 8.84395L10.8383 3.99132C10.8871 3.94016 10.9265 3.87844 10.9542 3.80974C10.9819 3.74105 10.9973 3.66675 10.9997 3.59117C11.002 3.51558 10.9912 3.44022 10.9679 3.36945C10.9445 3.29869 10.9091 3.23393 10.8636 3.17894C10.8182 3.12395 10.7636 3.07983 10.7031 3.04913C10.6426 3.01844 10.5774 3.00178 10.5112 3.00013C10.445 2.99849 10.3792 3.01188 10.3176 3.03954C10.2559 3.06719 10.1998 3.10856 10.1523 3.16124L5.99719 7.64392L1.84313 3.16124Z" fill="#044B96"/>
</svg>
