<svg width="11" height="11" viewBox="0 0 11 11" fill="none" xmlns="http://www.w3.org/2000/svg">
<path d="M9.23295 0.479883L9.81152 1.07051C10.4383 1.71035 10.4383 2.74805 9.81152 3.39199L8.9517 4.26973L6.09902 1.35762L6.95884 0.479883C7.58563 -0.159961 8.60215 -0.159961 9.23295 0.479883ZM0.960184 6.60352L5.18697 2.28867L8.03965 5.20078L3.81286 9.51152C3.64813 9.67969 3.44322 9.79863 3.2142 9.85605L0.799469 10.4713C0.578487 10.5287 0.349469 10.4631 0.188755 10.299C0.0280405 10.135 -0.036245 9.90117 0.020005 9.67559L0.622684 7.21055C0.678934 6.98086 0.795452 6.76758 0.960184 6.59941V6.60352Z" fill="white"/>
</svg>
