<svg width="20" height="20" viewBox="0 0 20 20" fill="none" xmlns="http://www.w3.org/2000/svg">
<path d="M3.37381 19.6803C2.526 19.6803 1.71199 19.3294 1.06324 18.68C-0.375193 17.2369 -0.375193 14.8898 1.06291 13.4476L12.2792 1.53694C14.0292 -0.215869 16.7098 -0.0583686 18.666 1.90038C19.5426 2.77851 20.0345 4.04444 20.016 5.37507C19.9976 6.69165 19.4832 7.95163 18.6041 8.83226L10.1273 17.8566C9.89133 18.1095 9.49571 18.121 9.24385 17.8838C8.9926 17.6463 8.98041 17.2501 9.21729 16.9982L17.707 7.96007C18.371 7.29476 18.752 6.35099 18.766 5.35755C18.7801 4.36351 18.421 3.4263 17.7823 2.78599C16.5823 1.58349 14.6285 0.953799 13.176 2.40974L1.96006 14.3204C0.995686 15.2872 0.995998 16.84 1.94756 17.7941C2.39379 18.2407 2.92348 18.4582 3.48754 18.4241C4.04567 18.39 4.61942 18.1038 5.10317 17.6188L14.0275 8.12001C14.351 7.79595 15.001 7.00157 14.3394 6.33845C13.9647 5.96314 13.7016 5.98626 13.615 5.99345C13.3679 6.01532 13.0791 6.18626 12.7794 6.48689L6.06223 13.6309C5.82504 13.8831 5.4291 13.8953 5.17877 13.6575C4.92721 13.4206 4.91565 13.0238 5.15221 12.7725L11.8816 5.61501C12.4107 5.08345 12.9516 4.79532 13.5022 4.74595C13.9319 4.7078 14.571 4.79939 15.2229 5.45314C16.1904 6.42249 16.0701 7.84439 14.9244 8.99251L6.00006 18.4906C5.28756 19.2056 4.42723 19.6209 3.5641 19.674C3.50067 19.6784 3.43723 19.6803 3.37379 19.6803L3.37381 19.6803Z" fill="#5B5B5B"/>
</svg>
