<svg width="21" height="15" viewBox="0 0 21 15" fill="none" xmlns="http://www.w3.org/2000/svg">
<path d="M16.8502 6.72005C17.5274 6.73742 18.0626 7.30169 18.0449 7.98096C18.0268 8.65818 17.4633 9.19331 16.7861 9.17491C16.1086 9.15753 15.5737 8.59327 15.5908 7.91553C15.6082 7.2378 16.1722 6.70292 16.8502 6.72005ZM5.64435 3.68941C6.08493 3.68941 6.39645 4.00093 6.39645 4.38836V5.56084H7.56869C7.95483 5.56084 8.26635 5.87237 8.26635 6.31294C8.26635 6.75224 7.95483 7.06377 7.56869 7.06377H6.39645V8.23779C6.39645 8.62342 6.08493 8.93495 5.64435 8.93495C5.20377 8.93495 4.89251 8.62342 4.89251 8.23779V7.06377H3.71976C3.33413 7.06377 3.02261 6.75224 3.02261 6.31294C3.02261 5.87237 3.33413 5.56084 3.71976 5.56084H4.89251V4.38836C4.89251 4.00093 5.20377 3.68941 5.64435 3.68941ZM14.8081 3.44996C15.4858 3.46836 16.0207 4.0316 16.0036 4.71036C15.9852 5.38783 15.4204 5.92322 14.7432 5.90431C14.0659 5.88719 13.5303 5.32267 13.5479 4.64544C13.5663 3.96746 14.1293 3.43232 14.8081 3.44996ZM5.41665 0.111633C2.91323 0.111633 1.56211 1.68483 1.35025 3.61351L0.446864 11.859C0.236542 13.7867 1.89765 14.9088 3.15805 14.9088C5.63387 14.9088 7.64101 10.8759 8.97986 10.8759H12.0744C13.4135 10.8759 15.4191 14.9088 17.8962 14.9088C19.1566 14.9088 20.8642 13.7813 20.6061 11.859L19.7025 3.61351C19.4441 1.69173 18.1397 0.111633 15.6373 0.111633C13.7991 0.111633 13.4025 1.11009 11.3662 1.11009H9.68801C7.65174 1.11009 7.25359 0.111633 5.41665 0.111633Z" fill="white"/>
</svg>
