<svg width="44" height="44" viewBox="0 0 44 44" fill="none" xmlns="http://www.w3.org/2000/svg">
<g clip-path="url(#clip0_9_472)">
<path d="M22 7.3877C13.9427 7.3877 7.3877 13.9428 7.3877 22C7.3877 30.0571 13.9427 36.6123 22 36.6123C30.0573 36.6123 36.6123 30.0571 36.6123 22C36.6123 13.9428 30.0573 7.3877 22 7.3877ZM23.805 29.1212C23.805 29.6783 22.9951 30.2353 22 30.2353C20.9586 30.2353 20.2182 29.6782 20.2182 29.1212V20.2779C20.2182 19.628 20.9587 19.1871 22 19.1871C22.9951 19.1871 23.805 19.628 23.805 20.2779V29.1212ZM22 17.0515C20.9356 17.0515 20.1024 16.2623 20.1024 15.3803C20.1024 14.4983 20.9355 13.7323 22 13.7323C23.0414 13.7323 23.8745 14.4982 23.8745 15.3803C23.8745 16.2624 23.0414 17.0515 22 17.0515Z" fill="#044B96"/>
<path d="M22 0C9.84045 0 0 9.83959 0 22C0 34.1596 9.83959 44 22 44C34.1595 44 44 34.1604 44 22C44 9.84045 34.1604 0 22 0ZM22 39.3062C12.4573 39.3062 4.69382 31.5427 4.69382 22C4.69382 12.4573 12.4573 4.69382 22 4.69382C31.5427 4.69382 39.3062 12.4573 39.3062 22C39.3062 31.5427 31.5427 39.3062 22 39.3062Z" fill="#044B96"/>
</g>
<defs>
<clipPath id="clip0_9_472">
<rect width="44" height="44" fill="white"/>
</clipPath>
</defs>
</svg>
