<svg width="30" height="30" viewBox="0 0 30 30" fill="none" xmlns="http://www.w3.org/2000/svg">
<path d="M22 8H8C4.13371 8 1 11.1337 1 15C1 18.8662 4.13371 21.9999 8 21.9999C9.99382 22.0085 11.8948 21.158 13.2181 19.6666H16.7819C18.1052 21.158 20.0062 22.0085 22 21.9999C25.8663 21.9999 29 18.8662 29 15C29 11.1337 25.8663 8 22 8ZM11.5 16.1666H9.16667V18.5H6.83333V16.1666H4.5V13.8333H6.83333V11.5H9.16667V13.8333H11.5V16.1666ZM16.1667 13.8333H13.8333V11.5H16.1667V13.8333ZM22 11.5C22.6443 11.5 23.1667 12.0224 23.1667 12.6666C23.1667 13.3109 22.6443 13.8333 22 13.8333C21.3557 13.8333 20.8333 13.3109 20.8333 12.6666C20.8333 12.0224 21.3557 11.5 22 11.5ZM19.6667 16.1666C19.0224 16.1666 18.5 15.6443 18.5 15C18.5 14.3557 19.0224 13.8333 19.6667 13.8333C20.311 13.8333 20.8333 14.3557 20.8333 15C20.8333 15.6443 20.311 16.1666 19.6667 16.1666ZM22 18.5C21.3557 18.5 20.8333 17.9776 20.8333 17.3333C20.8333 16.689 21.3557 16.1666 22 16.1666C22.6443 16.1666 23.1667 16.689 23.1667 17.3333C23.1667 17.9776 22.6443 18.5 22 18.5ZM24.3333 16.1666C23.689 16.1666 23.1667 15.6443 23.1667 15C23.1667 14.3557 23.689 13.8333 24.3333 13.8333C24.9776 13.8333 25.5 14.3557 25.5 15C25.5 15.6443 24.9776 16.1666 24.3333 16.1666Z" fill="#044B96"/>
</svg>
