<svg width="92" height="76" viewBox="0 0 92 76" fill="none" xmlns="http://www.w3.org/2000/svg">
<path d="M58.3334 9.91663C57.932 9.91663 57.5958 9.78063 57.3247 9.50863C57.0537 9.23663 56.9177 8.90041 56.9167 8.49996V7.0833H55.5001C55.0987 7.0833 54.7625 6.9473 54.4914 6.6753C54.2204 6.4033 54.0844 6.06708 54.0834 5.66663C54.0825 5.26619 54.2185 4.92996 54.4914 4.65796C54.7644 4.38596 55.1006 4.24996 55.5001 4.24996H56.9167V2.8333C56.9167 2.43191 57.0527 2.09569 57.3247 1.82463C57.5967 1.55358 57.933 1.41758 58.3334 1.41663C58.7339 1.41569 59.0706 1.55169 59.3435 1.82463C59.6164 2.09758 59.752 2.4338 59.7501 2.8333V4.24996H61.1667C61.5681 4.24996 61.9048 4.38596 62.1768 4.65796C62.4488 4.92996 62.5844 5.26619 62.5834 5.66663C62.5825 6.06708 62.4465 6.40377 62.1754 6.67671C61.9044 6.94966 61.5681 7.08519 61.1667 7.0833H59.7501V8.49996C59.7501 8.90135 59.6141 9.23805 59.3421 9.51005C59.0701 9.78205 58.7339 9.91757 58.3334 9.91663ZM45.5834 24.7916C47.3542 24.7916 48.8597 24.1721 50.0997 22.933C51.3398 21.6939 51.9594 20.1884 51.9584 18.4166C51.9575 16.6449 51.3379 15.1399 50.0997 13.9017C48.8616 12.6635 47.3561 12.0435 45.5834 12.0416C43.8107 12.0397 42.3057 12.6598 41.0685 13.9017C39.8313 15.1437 39.2112 16.6486 39.2084 18.4166C39.2056 20.1846 39.8256 21.6901 41.0685 22.933C42.3114 24.1759 43.8164 24.7954 45.5834 24.7916ZM45.5834 21.9583C44.5917 21.9583 43.7536 21.6159 43.0688 20.9312C42.3841 20.2465 42.0417 19.4083 42.0417 18.4166C42.0417 17.425 42.3841 16.5868 43.0688 15.902C43.7536 15.2173 44.5917 14.875 45.5834 14.875C46.5751 14.875 47.4133 15.2173 48.098 15.902C48.7827 16.5868 49.1251 17.425 49.1251 18.4166C49.1251 19.4083 48.7827 20.2465 48.098 20.9312C47.4133 21.6159 46.5751 21.9583 45.5834 21.9583ZM34.2501 29.75C33.4709 29.75 32.8041 29.4728 32.2497 28.9184C31.6954 28.364 31.4177 27.6967 31.4167 26.9166V9.91663C31.4167 9.13746 31.6944 8.47069 32.2497 7.9163C32.8051 7.36191 33.4719 7.08424 34.2501 7.0833H38.7126L40.4834 5.1708C40.7431 4.88746 41.0562 4.66316 41.4227 4.49788C41.7891 4.3326 42.1726 4.24996 42.573 4.24996H49.8334C50.2348 4.24996 50.5715 4.38596 50.8435 4.65796C51.1155 4.92996 51.251 5.26619 51.2501 5.66663V7.79163C51.2501 8.38191 51.4569 8.88388 51.8706 9.29755C52.2842 9.71121 52.7857 9.91757 53.3751 9.91663H54.0834V10.625C54.0834 11.2152 54.2902 11.7172 54.7039 12.1309C55.1176 12.5445 55.6191 12.7509 56.2084 12.75H58.3334C58.7348 12.75 59.0715 12.886 59.3435 13.158C59.6155 13.43 59.751 13.7662 59.7501 14.1666V26.9166C59.7501 27.6958 59.4729 28.363 58.9185 28.9184C58.3641 29.4737 57.6969 29.7509 56.9167 29.75H34.2501Z" fill="#C6C6C6"/>
<path d="M12.7394 55.68V52.621C13.0847 52.621 13.3694 52.5346 13.5934 52.362C13.8174 52.1846 13.9947 51.9443 14.1254 51.641C14.2607 51.333 14.3634 50.983 14.4334 50.591C14.5081 50.199 14.5641 49.786 14.6014 49.352C14.6574 48.764 14.7041 48.19 14.7414 47.63C14.7834 47.0653 14.8207 46.482 14.8534 45.88C14.8907 45.278 14.9304 44.6223 14.9724 43.913L21.4264 43.92V52.621H22.1754V55.68H20.7054V54H14.2024V55.68H12.7394ZM15.1404 52.621H19.9634V45.299L16.3234 45.292C16.2907 45.8053 16.2627 46.293 16.2394 46.755C16.2161 47.217 16.1857 47.6836 16.1484 48.155C16.1157 48.6216 16.0737 49.1233 16.0224 49.66C15.9711 50.1733 15.9174 50.6096 15.8614 50.969C15.8054 51.3236 15.7214 51.6316 15.6094 51.893C15.5021 52.1543 15.3457 52.397 15.1404 52.621Z" fill="#A8A8A8"/>
<path d="M26.9924 54.21C26.2364 54.21 25.5807 54.0396 25.0254 53.699C24.4701 53.3583 24.0407 52.8893 23.7374 52.292C23.4387 51.69 23.2894 50.997 23.2894 50.213C23.2894 49.4243 23.4434 48.7313 23.7514 48.134C24.0594 47.532 24.4911 47.0653 25.0464 46.734C25.6017 46.398 26.2504 46.23 26.9924 46.23C27.7484 46.23 28.4041 46.4003 28.9594 46.741C29.5147 47.0816 29.9441 47.5506 30.2474 48.148C30.5507 48.7453 30.7024 49.4336 30.7024 50.213C30.7024 51.0016 30.5484 51.697 30.2404 52.299C29.9371 52.8963 29.5077 53.3653 28.9524 53.706C28.3971 54.042 27.7437 54.21 26.9924 54.21ZM26.9924 52.831C27.7157 52.831 28.2547 52.5883 28.6094 52.103C28.9687 51.613 29.1484 50.983 29.1484 50.213C29.1484 49.4243 28.9664 48.7943 28.6024 48.323C28.2431 47.847 27.7064 47.609 26.9924 47.609C26.5024 47.609 26.0987 47.721 25.7814 47.945C25.4641 48.1643 25.2284 48.47 25.0744 48.862C24.9204 49.2493 24.8434 49.6996 24.8434 50.213C24.8434 51.0063 25.0254 51.641 25.3894 52.117C25.7534 52.593 26.2877 52.831 26.9924 52.831Z" fill="#A8A8A8"/>
<path d="M35.3486 54.217C34.63 54.2123 34.0186 54.056 33.5146 53.748C33.0106 53.44 32.6163 52.9966 32.3316 52.418C32.0516 51.8346 31.8883 51.1323 31.8416 50.311C31.8183 49.9143 31.8206 49.4756 31.8486 48.995C31.8766 48.5096 31.928 48.0406 32.0026 47.588C32.082 47.1353 32.1823 46.7573 32.3036 46.454C32.439 46.118 32.6233 45.81 32.8566 45.53C33.09 45.2453 33.3466 45.0073 33.6266 44.816C33.9253 44.6106 34.2566 44.452 34.6206 44.34C34.9846 44.2233 35.365 44.1323 35.7616 44.067C36.163 44.0016 36.5666 43.9456 36.9726 43.899C37.3833 43.8476 37.7823 43.7846 38.1696 43.71L38.3096 45.019C38.053 45.0796 37.7496 45.1286 37.3996 45.166C37.0543 45.2033 36.695 45.2453 36.3216 45.292C35.953 45.3386 35.6006 45.404 35.2646 45.488C34.9286 45.572 34.637 45.691 34.3896 45.845C34.0396 46.0596 33.7713 46.3723 33.5846 46.783C33.4026 47.1936 33.293 47.6393 33.2556 48.12C33.545 47.6813 33.9136 47.3663 34.3616 47.175C34.8096 46.979 35.274 46.881 35.7546 46.881C36.4266 46.881 37.0053 47.0396 37.4906 47.357C37.9806 47.6743 38.3563 48.106 38.6176 48.652C38.879 49.198 39.0096 49.8163 39.0096 50.507C39.0096 51.2536 38.8556 51.907 38.5476 52.467C38.2443 53.0223 37.8173 53.4563 37.2666 53.769C36.716 54.077 36.0766 54.2263 35.3486 54.217ZM35.4256 52.838C36.0976 52.838 36.604 52.6303 36.9446 52.215C37.29 51.7996 37.4626 51.2466 37.4626 50.556C37.4626 49.8466 37.2853 49.289 36.9306 48.883C36.576 48.477 36.0743 48.274 35.4256 48.274C34.7676 48.274 34.2636 48.477 33.9136 48.883C33.5683 49.289 33.3956 49.8466 33.3956 50.556C33.3956 51.2746 33.5706 51.8346 33.9206 52.236C34.2706 52.6373 34.7723 52.838 35.4256 52.838Z" fill="#A8A8A8"/>
<path d="M42.6881 54.21C42.1281 54.21 41.6591 54.1073 41.2811 53.902C40.9031 53.692 40.6161 53.4166 40.4201 53.076C40.2288 52.7306 40.1331 52.3526 40.1331 51.942C40.1331 51.5593 40.2008 51.2233 40.3361 50.934C40.4715 50.6446 40.6721 50.3996 40.9381 50.199C41.2041 49.9936 41.5308 49.828 41.9181 49.702C42.2541 49.604 42.6345 49.5176 43.0591 49.443C43.4838 49.3683 43.9295 49.2983 44.3961 49.233C44.8675 49.1676 45.3341 49.1023 45.7961 49.037L45.2641 49.331C45.2735 48.7383 45.1475 48.2996 44.8861 48.015C44.6295 47.7256 44.1861 47.581 43.5561 47.581C43.1595 47.581 42.7955 47.6743 42.4641 47.861C42.1328 48.043 41.9018 48.3463 41.7711 48.771L40.4061 48.351C40.5928 47.7023 40.9475 47.1866 41.4701 46.804C41.9975 46.4213 42.6975 46.23 43.5701 46.23C44.2468 46.23 44.8348 46.3466 45.3341 46.58C45.8381 46.8086 46.2068 47.1726 46.4401 47.672C46.5615 47.9193 46.6361 48.1806 46.6641 48.456C46.6921 48.7313 46.7061 49.0276 46.7061 49.345V54H45.4111V52.271L45.6631 52.495C45.3505 53.0736 44.9515 53.5053 44.4661 53.79C43.9855 54.07 43.3928 54.21 42.6881 54.21ZM42.9471 53.013C43.3625 53.013 43.7195 52.9406 44.0181 52.796C44.3168 52.6466 44.5571 52.4576 44.7391 52.229C44.9211 52.0003 45.0401 51.7623 45.0961 51.515C45.1755 51.291 45.2198 51.039 45.2291 50.759C45.2431 50.479 45.2501 50.255 45.2501 50.087L45.7261 50.262C45.2641 50.332 44.8441 50.395 44.4661 50.451C44.0881 50.507 43.7451 50.563 43.4371 50.619C43.1338 50.6703 42.8631 50.7333 42.6251 50.808C42.4245 50.878 42.2448 50.962 42.0861 51.06C41.9321 51.158 41.8085 51.277 41.7151 51.417C41.6265 51.557 41.5821 51.7273 41.5821 51.928C41.5821 52.124 41.6311 52.306 41.7291 52.474C41.8271 52.6373 41.9765 52.768 42.1771 52.866C42.3778 52.964 42.6345 53.013 42.9471 53.013Z" fill="#A8A8A8"/>
<path d="M48.5168 54V46.44H51.8418C52.0612 46.44 52.2805 46.454 52.4998 46.482C52.7192 46.5053 52.9128 46.5403 53.0808 46.587C53.4635 46.6943 53.7902 46.909 54.0608 47.231C54.3315 47.5483 54.4668 47.973 54.4668 48.505C54.4668 48.8083 54.4202 49.065 54.3268 49.275C54.2335 49.4803 54.1052 49.6576 53.9418 49.807C53.8672 49.8723 53.7878 49.9306 53.7038 49.982C53.6198 50.0333 53.5358 50.073 53.4518 50.101C53.6245 50.129 53.7948 50.1896 53.9628 50.283C54.2195 50.4183 54.4295 50.6143 54.5928 50.871C54.7608 51.123 54.8448 51.4613 54.8448 51.886C54.8448 52.3946 54.7212 52.8216 54.4738 53.167C54.2265 53.5076 53.8765 53.741 53.4238 53.867C53.2465 53.9183 53.0458 53.9533 52.8218 53.972C52.6025 53.9906 52.3832 54 52.1638 54H48.5168ZM50.0008 52.845H52.0728C52.1708 52.845 52.2828 52.8356 52.4088 52.817C52.5348 52.7983 52.6468 52.7726 52.7448 52.74C52.9548 52.6746 53.1042 52.5556 53.1928 52.383C53.2862 52.2103 53.3328 52.026 53.3328 51.83C53.3328 51.564 53.2628 51.3516 53.1228 51.193C52.9828 51.0296 52.8055 50.9246 52.5908 50.878C52.4975 50.8453 52.3948 50.8266 52.2828 50.822C52.1708 50.8173 52.0752 50.815 51.9958 50.815H50.0008V52.845ZM50.0008 49.639H51.6388C51.7742 49.639 51.9118 49.632 52.0518 49.618C52.1918 49.5993 52.3132 49.569 52.4158 49.527C52.5978 49.457 52.7332 49.3403 52.8218 49.177C52.9105 49.009 52.9548 48.827 52.9548 48.631C52.9548 48.4163 52.9058 48.225 52.8078 48.057C52.7098 47.889 52.5628 47.7723 52.3668 47.707C52.2315 47.6603 52.0752 47.6346 51.8978 47.63C51.7252 47.6206 51.6155 47.616 51.5688 47.616H50.0008V49.639Z" fill="#A8A8A8"/>
<path d="M62.6185 46.44V54H61.2115V48.743L57.4315 54H56.2415V46.44H57.6485V51.592L61.4355 46.44H62.6185Z" fill="#A8A8A8"/>
<path d="M66.5276 54V47.756H63.9446V46.44H70.5736V47.756H67.9906V54H66.5276Z" fill="#A8A8A8"/>
<path d="M71.8958 54V46.44H73.3658V49.065H74.8568C75.0714 49.065 75.3001 49.0696 75.5428 49.079C75.7901 49.0883 76.0024 49.1116 76.1797 49.149C76.5857 49.233 76.9358 49.373 77.2298 49.569C77.5284 49.765 77.7594 50.0263 77.9228 50.353C78.0861 50.675 78.1678 51.0716 78.1678 51.543C78.1678 52.201 77.9951 52.726 77.6497 53.118C77.3091 53.5053 76.8471 53.7666 76.2637 53.902C76.0771 53.944 75.8554 53.972 75.5988 53.986C75.3468 53.9953 75.1158 54 74.9058 54H71.8958ZM73.3658 52.824H74.9898C75.1064 52.824 75.2394 52.8193 75.3887 52.81C75.5381 52.8006 75.6758 52.7796 75.8018 52.747C76.0258 52.6816 76.2264 52.5486 76.4038 52.348C76.5811 52.1473 76.6698 51.879 76.6698 51.543C76.6698 51.1976 76.5811 50.9223 76.4038 50.717C76.2311 50.5116 76.0118 50.3786 75.7458 50.318C75.6198 50.2853 75.4914 50.2643 75.3607 50.255C75.2301 50.2456 75.1064 50.241 74.9898 50.241H73.3658V52.824Z" fill="#A8A8A8"/>
<path d="M6.54326 64.44V72H5.13626V66.743L1.35626 72H0.16626V64.44H1.57326V69.592L5.36026 64.44H6.54326Z" fill="#A8A8A8"/>
<path d="M11.1944 72.21C10.4618 72.21 9.80376 72.0536 9.22043 71.741C8.64176 71.4283 8.18443 70.9966 7.84843 70.446L9.01043 69.683C9.2811 70.047 9.59377 70.3293 9.94843 70.53C10.3078 70.7306 10.7114 70.831 11.1594 70.831C11.6261 70.831 11.9948 70.726 12.2654 70.516C12.5408 70.3013 12.6784 70.0143 12.6784 69.655C12.6784 69.3703 12.5991 69.1603 12.4404 69.025C12.2864 68.885 12.0718 68.794 11.7964 68.752C11.5258 68.71 11.2178 68.689 10.8724 68.689H10.2004V67.513H10.8724C11.3298 67.513 11.7054 67.45 11.9994 67.324C12.2981 67.1933 12.4474 66.9483 12.4474 66.589C12.4474 66.239 12.3191 65.987 12.0624 65.833C11.8104 65.679 11.5094 65.602 11.1594 65.602C10.7674 65.602 10.3871 65.686 10.0184 65.854C9.64977 66.0173 9.32777 66.2203 9.05243 66.463L8.19843 65.462C8.59977 65.0746 9.0571 64.7736 9.57043 64.559C10.0884 64.3396 10.6438 64.23 11.2364 64.23C11.7218 64.23 12.1698 64.3163 12.5804 64.489C12.9958 64.657 13.3271 64.9066 13.5744 65.238C13.8264 65.5693 13.9524 65.9776 13.9524 66.463C13.9524 66.841 13.8684 67.1863 13.7004 67.499C13.5324 67.8116 13.2758 68.0963 12.9304 68.353L12.8884 67.856C13.1731 67.9446 13.4111 68.087 13.6024 68.283C13.7938 68.479 13.9361 68.71 14.0294 68.976C14.1274 69.2373 14.1764 69.515 14.1764 69.809C14.1764 70.3176 14.0411 70.7516 13.7704 71.111C13.5044 71.4703 13.1451 71.7433 12.6924 71.93C12.2398 72.1166 11.7404 72.21 11.1944 72.21Z" fill="#A8A8A8"/>
<path d="M19.0012 72.21C18.2452 72.21 17.5895 72.0396 17.0342 71.699C16.4788 71.3583 16.0495 70.8893 15.7462 70.292C15.4475 69.69 15.2982 68.997 15.2982 68.213C15.2982 67.4243 15.4522 66.7313 15.7602 66.134C16.0682 65.532 16.4998 65.0653 17.0552 64.734C17.6105 64.398 18.2592 64.23 19.0012 64.23C19.7572 64.23 20.4128 64.4003 20.9682 64.741C21.5235 65.0816 21.9528 65.5506 22.2562 66.148C22.5595 66.7453 22.7112 67.4336 22.7112 68.213C22.7112 69.0016 22.5572 69.697 22.2492 70.299C21.9458 70.8963 21.5165 71.3653 20.9612 71.706C20.4058 72.042 19.7525 72.21 19.0012 72.21ZM19.0012 70.831C19.7245 70.831 20.2635 70.5883 20.6182 70.103C20.9775 69.613 21.1572 68.983 21.1572 68.213C21.1572 67.4243 20.9752 66.7943 20.6112 66.323C20.2518 65.847 19.7152 65.609 19.0012 65.609C18.5112 65.609 18.1075 65.721 17.7902 65.945C17.4728 66.1643 17.2372 66.47 17.0832 66.862C16.9292 67.2493 16.8522 67.6996 16.8522 68.213C16.8522 69.0063 17.0342 69.641 17.3982 70.117C17.7622 70.593 18.2965 70.831 19.0012 70.831Z" fill="#A8A8A8"/>
<path d="M27.3574 72.217C26.6388 72.2123 26.0274 72.056 25.5234 71.748C25.0194 71.44 24.6251 70.9966 24.3404 70.418C24.0604 69.8346 23.8971 69.1323 23.8504 68.311C23.8271 67.9143 23.8294 67.4756 23.8574 66.995C23.8854 66.5096 23.9368 66.0406 24.0114 65.588C24.0908 65.1353 24.1911 64.7573 24.3124 64.454C24.4478 64.118 24.6321 63.81 24.8654 63.53C25.0988 63.2453 25.3554 63.0073 25.6354 62.816C25.9341 62.6106 26.2654 62.452 26.6294 62.34C26.9934 62.2233 27.3738 62.1323 27.7704 62.067C28.1718 62.0016 28.5754 61.9456 28.9814 61.899C29.3921 61.8476 29.7911 61.7846 30.1784 61.71L30.3184 63.019C30.0618 63.0796 29.7584 63.1286 29.4084 63.166C29.0631 63.2033 28.7038 63.2453 28.3304 63.292C27.9618 63.3386 27.6094 63.404 27.2734 63.488C26.9374 63.572 26.6458 63.691 26.3984 63.845C26.0484 64.0596 25.7801 64.3723 25.5934 64.783C25.4114 65.1936 25.3018 65.6393 25.2644 66.12C25.5538 65.6813 25.9224 65.3663 26.3704 65.175C26.8184 64.979 27.2828 64.881 27.7634 64.881C28.4354 64.881 29.0141 65.0396 29.4994 65.357C29.9894 65.6743 30.3651 66.106 30.6264 66.652C30.8878 67.198 31.0184 67.8163 31.0184 68.507C31.0184 69.2536 30.8644 69.907 30.5564 70.467C30.2531 71.0223 29.8261 71.4563 29.2754 71.769C28.7248 72.077 28.0854 72.2263 27.3574 72.217ZM27.4344 70.838C28.1064 70.838 28.6128 70.6303 28.9534 70.215C29.2988 69.7996 29.4714 69.2466 29.4714 68.556C29.4714 67.8466 29.2941 67.289 28.9394 66.883C28.5848 66.477 28.0831 66.274 27.4344 66.274C26.7764 66.274 26.2724 66.477 25.9224 66.883C25.5771 67.289 25.4044 67.8466 25.4044 68.556C25.4044 69.2746 25.5794 69.8346 25.9294 70.236C26.2794 70.6373 26.7811 70.838 27.4344 70.838Z" fill="#A8A8A8"/>
<path d="M36.1109 72.21C35.3876 72.21 34.7809 72.035 34.2909 71.685C33.8009 71.3303 33.4299 70.852 33.1779 70.25C32.9259 69.648 32.7999 68.969 32.7999 68.213C32.7999 67.457 32.9236 66.778 33.1709 66.176C33.4229 65.574 33.7916 65.1003 34.2769 64.755C34.7669 64.405 35.3689 64.23 36.0829 64.23C36.7923 64.23 37.4036 64.405 37.9169 64.755C38.4349 65.1003 38.8339 65.574 39.1139 66.176C39.3939 66.7733 39.5339 67.4523 39.5339 68.213C39.5339 68.969 39.3939 69.6503 39.1139 70.257C38.8386 70.859 38.4443 71.335 37.9309 71.685C37.4223 72.035 36.8156 72.21 36.1109 72.21ZM32.5549 75.36V64.44H33.8569V69.879H34.0249V75.36H32.5549ZM35.9079 70.887C36.3746 70.887 36.7596 70.768 37.0629 70.53C37.3709 70.292 37.5996 69.9723 37.7489 69.571C37.9029 69.165 37.9799 68.7123 37.9799 68.213C37.9799 67.7183 37.9029 67.2703 37.7489 66.869C37.5996 66.4676 37.3686 66.148 37.0559 65.91C36.7433 65.672 36.3443 65.553 35.8589 65.553C35.4016 65.553 35.0236 65.665 34.7249 65.889C34.4309 66.113 34.2116 66.4256 34.0669 66.827C33.9269 67.2283 33.8569 67.6903 33.8569 68.213C33.8569 68.7356 33.9269 69.1976 34.0669 69.599C34.2069 70.0003 34.4286 70.3153 34.7319 70.544C35.0353 70.7726 35.4273 70.887 35.9079 70.887Z" fill="#A8A8A8"/>
<path d="M43.2145 72.21C42.6545 72.21 42.1855 72.1073 41.8075 71.902C41.4295 71.692 41.1425 71.4166 40.9465 71.076C40.7552 70.7306 40.6595 70.3526 40.6595 69.942C40.6595 69.5593 40.7272 69.2233 40.8625 68.934C40.9978 68.6446 41.1985 68.3996 41.4645 68.199C41.7305 67.9936 42.0572 67.828 42.4445 67.702C42.7805 67.604 43.1608 67.5176 43.5855 67.443C44.0102 67.3683 44.4558 67.2983 44.9225 67.233C45.3938 67.1676 45.8605 67.1023 46.3225 67.037L45.7905 67.331C45.7998 66.7383 45.6738 66.2996 45.4125 66.015C45.1558 65.7256 44.7125 65.581 44.0825 65.581C43.6858 65.581 43.3218 65.6743 42.9905 65.861C42.6592 66.043 42.4282 66.3463 42.2975 66.771L40.9325 66.351C41.1192 65.7023 41.4738 65.1866 41.9965 64.804C42.5238 64.4213 43.2238 64.23 44.0965 64.23C44.7732 64.23 45.3612 64.3466 45.8605 64.58C46.3645 64.8086 46.7332 65.1726 46.9665 65.672C47.0878 65.9193 47.1625 66.1806 47.1905 66.456C47.2185 66.7313 47.2325 67.0276 47.2325 67.345V72H45.9375V70.271L46.1895 70.495C45.8768 71.0736 45.4778 71.5053 44.9925 71.79C44.5118 72.07 43.9192 72.21 43.2145 72.21ZM43.4735 71.013C43.8888 71.013 44.2458 70.9406 44.5445 70.796C44.8432 70.6466 45.0835 70.4576 45.2655 70.229C45.4475 70.0003 45.5665 69.7623 45.6225 69.515C45.7018 69.291 45.7462 69.039 45.7555 68.759C45.7695 68.479 45.7765 68.255 45.7765 68.087L46.2525 68.262C45.7905 68.332 45.3705 68.395 44.9925 68.451C44.6145 68.507 44.2715 68.563 43.9635 68.619C43.6602 68.6703 43.3895 68.7333 43.1515 68.808C42.9508 68.878 42.7712 68.962 42.6125 69.06C42.4585 69.158 42.3348 69.277 42.2415 69.417C42.1528 69.557 42.1085 69.7273 42.1085 69.928C42.1085 70.124 42.1575 70.306 42.2555 70.474C42.3535 70.6373 42.5028 70.768 42.7035 70.866C42.9042 70.964 43.1608 71.013 43.4735 71.013Z" fill="#A8A8A8"/>
<path d="M48.2102 72L51.1222 68.22L48.3712 64.44H49.9812L52.6132 68.129V64.44H53.9292V68.129L56.5612 64.44H58.1782L55.4272 68.22L58.3392 72H56.6382L53.9292 68.311V72H52.6132V68.311L49.9112 72H48.2102Z" fill="#A8A8A8"/>
<path d="M62.5341 72.21C61.7827 72.21 61.1224 72.0466 60.5531 71.72C59.9884 71.3886 59.5474 70.929 59.2301 70.341C58.9174 69.7483 58.7611 69.0623 58.7611 68.283C58.7611 67.457 58.9151 66.7406 59.2231 66.134C59.5357 65.5273 59.9697 65.0583 60.5251 64.727C61.0804 64.3956 61.7267 64.23 62.4641 64.23C63.2341 64.23 63.8897 64.4096 64.4311 64.769C64.9724 65.1236 65.3761 65.63 65.6421 66.288C65.9127 66.946 66.0201 67.7276 65.9641 68.633H64.5011V68.101C64.4917 67.2236 64.3237 66.575 63.9971 66.155C63.6751 65.735 63.1827 65.525 62.5201 65.525C61.7874 65.525 61.2367 65.756 60.8681 66.218C60.4994 66.68 60.3151 67.3473 60.3151 68.22C60.3151 69.0506 60.4994 69.6946 60.8681 70.152C61.2367 70.6046 61.7687 70.831 62.4641 70.831C62.9214 70.831 63.3157 70.7283 63.6471 70.523C63.9831 70.313 64.2444 70.0143 64.4311 69.627L65.8661 70.082C65.5721 70.7586 65.1264 71.2836 64.5291 71.657C63.9317 72.0256 63.2667 72.21 62.5341 72.21ZM59.8391 68.633V67.492H65.2361V68.633H59.8391Z" fill="#A8A8A8"/>
<path d="M67.5276 72V64.44H68.9906V67.527H72.6796V64.44H74.1426V72H72.6796V68.906H68.9906V72H67.5276Z" fill="#A8A8A8"/>
<path d="M82.4769 64.44V72H81.0699V66.743L77.2899 72H76.0999V64.44H77.5069V69.592L81.2939 64.44H82.4769Z" fill="#A8A8A8"/>
<path d="M87.786 72.21C87.0347 72.21 86.3744 72.0466 85.805 71.72C85.2404 71.3886 84.7994 70.929 84.482 70.341C84.1694 69.7483 84.013 69.0623 84.013 68.283C84.013 67.457 84.167 66.7406 84.475 66.134C84.7877 65.5273 85.2217 65.0583 85.777 64.727C86.3324 64.3956 86.9787 64.23 87.716 64.23C88.486 64.23 89.1417 64.4096 89.683 64.769C90.2244 65.1236 90.628 65.63 90.894 66.288C91.1647 66.946 91.272 67.7276 91.216 68.633H89.753V68.101C89.7437 67.2236 89.5757 66.575 89.249 66.155C88.927 65.735 88.4347 65.525 87.772 65.525C87.0394 65.525 86.4887 65.756 86.12 66.218C85.7514 66.68 85.567 67.3473 85.567 68.22C85.567 69.0506 85.7514 69.6946 86.12 70.152C86.4887 70.6046 87.0207 70.831 87.716 70.831C88.1734 70.831 88.5677 70.7283 88.899 70.523C89.235 70.313 89.4964 70.0143 89.683 69.627L91.118 70.082C90.824 70.7586 90.3784 71.2836 89.781 71.657C89.1837 72.0256 88.5187 72.21 87.786 72.21ZM85.091 68.633V67.492H90.488V68.633H85.091Z" fill="#A8A8A8"/>
</svg>
