<svg width="21" height="21" viewBox="0 0 21 21" fill="none" xmlns="http://www.w3.org/2000/svg">
<path d="M10.5001 0.916687C15.793 0.916687 20.0834 5.20715 20.0834 10.5C20.0834 15.7929 15.793 20.0834 10.5001 20.0834C5.20721 20.0834 0.916748 15.7929 0.916748 10.5C0.916748 5.20715 5.20721 0.916687 10.5001 0.916687ZM10.5001 14.3334C10.2459 14.3334 10.0022 14.4343 9.82244 14.614C9.64272 14.7938 9.54175 15.0375 9.54175 15.2917C9.54175 15.5459 9.64272 15.7896 9.82244 15.9693C10.0022 16.1491 10.2459 16.25 10.5001 16.25C10.7542 16.25 10.998 16.1491 11.1777 15.9693C11.3574 15.7896 11.4584 15.5459 11.4584 15.2917C11.4584 15.0375 11.3574 14.7938 11.1777 14.614C10.998 14.4343 10.7542 14.3334 10.5001 14.3334ZM10.5001 5.22919C9.57873 5.22919 8.69512 5.59519 8.04362 6.24669C7.39213 6.89818 7.02612 7.78179 7.02612 8.70315C7.02612 8.95731 7.12709 9.20107 7.30681 9.38079C7.48653 9.56051 7.73029 9.66148 7.98446 9.66148C8.23862 9.66148 8.48238 9.56051 8.6621 9.38079C8.84182 9.20107 8.94279 8.95731 8.94279 8.70315C8.94311 8.42047 9.02036 8.14321 9.16626 7.9011C9.31216 7.65899 9.52121 7.46116 9.77099 7.32882C10.0208 7.19648 10.3019 7.13462 10.5841 7.14987C10.8664 7.16512 11.1392 7.25692 11.3732 7.41541C11.6073 7.5739 11.7938 7.79311 11.9128 8.04953C12.0317 8.30596 12.0786 8.58992 12.0485 8.87099C12.0183 9.15205 11.9123 9.4196 11.7416 9.64496C11.571 9.87032 11.3422 10.045 11.0799 10.1502C10.432 10.409 9.54175 11.0721 9.54175 12.1771V12.4167C9.54175 12.6709 9.64272 12.9146 9.82244 13.0943C10.0022 13.2741 10.2459 13.375 10.5001 13.375C10.7542 13.375 10.998 13.2741 11.1777 13.0943C11.3574 12.9146 11.4584 12.6709 11.4584 12.4167C11.4584 12.1829 11.5063 12.0659 11.7085 11.9663L11.7919 11.9279C12.5402 11.6269 13.1605 11.075 13.5464 10.3667C13.9323 9.65849 14.0598 8.83806 13.9071 8.0461C13.7543 7.25413 13.3309 6.53996 12.7093 6.02601C12.0877 5.51207 11.3066 5.23036 10.5001 5.22919Z" fill="#EB5757"/>
</svg>
