<svg width="30" height="30" viewBox="0 0 30 30" fill="none" xmlns="http://www.w3.org/2000/svg">
<path d="M7.8 18.2H4.2C3.53738 18.2 3 18.7374 3 19.4V23C3 23.6626 3.53738 24.2 4.2 24.2H7.8C8.46263 24.2 9 23.6626 9 23V19.4C9 18.7374 8.46263 18.2 7.8 18.2ZM6.9 15.2H14.1V17H15.9V15.2H23.1V17H24.9V14.8404C24.9 14.0465 24.2539 13.4 23.4596 13.4H15.9V11H17.4C18.0626 11 18.6 10.4626 18.6 9.8V6.2C18.6 5.53738 18.0626 5 17.4 5H12.6C11.9374 5 11.4 5.53738 11.4 6.2V9.8C11.4 10.4626 11.9374 11 12.6 11H14.1V13.4H6.54038C5.74613 13.4 5.1 14.0461 5.1 14.8404V17H6.9V15.2ZM16.8 18.2H13.2C12.5374 18.2 12 18.7374 12 19.4V23C12 23.6626 12.5374 24.2 13.2 24.2H16.8C17.4626 24.2 18 23.6626 18 23V19.4C18 18.7374 17.4626 18.2 16.8 18.2ZM25.8 18.2H22.2C21.5374 18.2 21 18.7374 21 19.4V23C21 23.6626 21.5374 24.2 22.2 24.2H25.8C26.4626 24.2 27 23.6626 27 23V19.4C27 18.7374 26.4626 18.2 25.8 18.2Z" fill="#044B96"/>
</svg>
