<svg width="49" height="49" viewBox="0 0 49 49" fill="none" xmlns="http://www.w3.org/2000/svg">
<path d="M11.604 14.0284C11.9783 23.8516 16.721 32.9807 24.5001 38.901C32.2988 32.9654 37.0472 23.8067 37.399 14.0284C32.8876 13.3653 28.5571 11.9704 24.5001 9.87177C20.443 11.9704 16.1154 13.3653 11.604 14.0284ZM32.6928 19.7945L23.0645 29.4228L17.743 24.1012L19.7729 22.0712L23.0645 25.3628L30.6629 17.7645L32.6928 19.7945Z" fill="#044B96"/>
<path d="M45.8692 5.81195L44.3817 5.86526C33.0201 6.27812 24.7993 0.10958 24.5 0C24.2042 0.108719 16.2091 6.32751 4.40234 5.85962H2.9668V12.8593C2.9668 38.4486 24.2119 48.7125 24.5 49C30.8176 45.3935 46.0332 34.5331 46.0332 12.8592V7.29507L45.8692 5.81195ZM40.291 12.7723C40.291 32.4105 24.763 42.1435 24.5 42.445C24.2495 42.1579 8.70898 32.8829 8.70898 12.8592V11.5793L9.9805 11.3466C18.4202 10.3719 23.9658 6.84727 24.5 6.61663C25.0399 6.84976 30.416 10.353 39.0195 11.3467L40.291 11.4924V12.7723Z" fill="#044B96"/>
</svg>
