<svg width="30" height="30" viewBox="0 0 30 30" fill="none" xmlns="http://www.w3.org/2000/svg">
<path fill-rule="evenodd" clip-rule="evenodd" d="M14.507 2.59998C14.6626 2.53327 14.8302 2.49887 14.9995 2.49887C15.1688 2.49887 15.3364 2.53327 15.492 2.59998L23.4845 6.02623C23.9343 6.21905 24.3176 6.53965 24.5869 6.94828C24.8563 7.35691 24.9997 7.83559 24.9995 8.32498V16.9C24.9994 18.4424 24.5915 19.9573 23.8173 21.2913C23.043 22.6253 21.9299 23.731 20.5908 24.4962L15.6195 27.3362C15.4307 27.4441 15.217 27.5008 14.9995 27.5008C14.782 27.5008 14.5683 27.4441 14.3795 27.3362L9.40826 24.4962C8.06872 23.7308 6.95538 22.6247 6.18113 21.2903C5.40687 19.9558 4.99922 18.4403 4.99951 16.8975V8.32498C4.99957 7.83581 5.14313 7.35739 5.41242 6.94901C5.68172 6.54063 6.0649 6.22022 6.51451 6.02748L14.507 2.59998ZM19.6333 13.3837C19.861 13.148 19.987 12.8322 19.9841 12.5045C19.9813 12.1767 19.8498 11.8632 19.618 11.6315C19.3863 11.3997 19.0728 11.2682 18.745 11.2654C18.4173 11.2625 18.1015 11.3885 17.8658 11.6162L13.7495 15.7325L12.1333 14.1162C11.8975 13.8885 11.5818 13.7625 11.254 13.7654C10.9263 13.7682 10.6127 13.8997 10.381 14.1315C10.1492 14.3632 10.0178 14.6767 10.0149 15.0045C10.0121 15.3322 10.1381 15.648 10.3658 15.8837L12.8658 18.3837C13.1002 18.6181 13.4181 18.7497 13.7495 18.7497C14.081 18.7497 14.3989 18.6181 14.6333 18.3837L19.6333 13.3837Z" fill="#044B96"/>
</svg>
