<svg width="30" height="30" viewBox="0 0 30 30" fill="none" xmlns="http://www.w3.org/2000/svg">
<path fill-rule="evenodd" clip-rule="evenodd" d="M21.9553 5.68352C21.9553 5.37528 21.8328 5.07965 21.6149 4.86169C21.3969 4.64372 21.1013 4.52127 20.793 4.52127C20.4848 4.52127 20.1892 4.64372 19.9712 4.86169C19.7532 5.07965 19.6308 5.37528 19.6308 5.68352V6.84578H5.68374C5.37549 6.84578 5.07987 6.96823 4.8619 7.1862C4.64394 7.40416 4.52148 7.69978 4.52148 8.00803C4.52148 8.31628 4.64394 8.61191 4.8619 8.82987C5.07987 9.04784 5.37549 9.17029 5.68374 9.17029H19.6308V10.3325C19.6308 10.6408 19.7532 10.9364 19.9712 11.1544C20.1892 11.3723 20.4848 11.4948 20.793 11.4948C21.1013 11.4948 21.3969 11.3723 21.6149 11.1544C21.8328 10.9364 21.9553 10.6408 21.9553 10.3325V9.17029H24.2798C24.5881 9.17029 24.8837 9.04784 25.1016 8.82987C25.3196 8.61191 25.4421 8.31628 25.4421 8.00803C25.4421 7.69978 25.3196 7.40416 25.1016 7.1862C24.8837 6.96823 24.5881 6.84578 24.2798 6.84578H21.9553V5.68352ZM5.68374 13.8193C5.37549 13.8193 5.07987 13.9418 4.8619 14.1597C4.64394 14.3777 4.52148 14.6733 4.52148 14.9816C4.52148 15.2898 4.64394 15.5854 4.8619 15.8034C5.07987 16.0214 5.37549 16.1438 5.68374 16.1438H8.00825V17.3061C8.00825 17.6143 8.1307 17.9099 8.34866 18.1279C8.56663 18.3459 8.86225 18.4683 9.1705 18.4683C9.47875 18.4683 9.77437 18.3459 9.99234 18.1279C10.2103 17.9099 10.3328 17.6143 10.3328 17.3061V16.1438H24.2798C24.5881 16.1438 24.8837 16.0214 25.1016 15.8034C25.3196 15.5854 25.4421 15.2898 25.4421 14.9816C25.4421 14.6733 25.3196 14.3777 25.1016 14.1597C24.8837 13.9418 24.5881 13.8193 24.2798 13.8193H10.3328V12.6571C10.3328 12.3488 10.2103 12.0532 9.99234 11.8352C9.77437 11.6172 9.47875 11.4948 9.1705 11.4948C8.86225 11.4948 8.56663 11.6172 8.34866 11.8352C8.1307 12.0532 8.00825 12.3488 8.00825 12.6571V13.8193H5.68374ZM4.52148 21.9551C4.52148 21.6468 4.64394 21.3512 4.8619 21.1332C5.07987 20.9153 5.37549 20.7928 5.68374 20.7928H19.6308V19.6306C19.6308 19.3223 19.7532 19.0267 19.9712 18.8087C20.1892 18.5908 20.4848 18.4683 20.793 18.4683C21.1013 18.4683 21.3969 18.5908 21.6149 18.8087C21.8328 19.0267 21.9553 19.3223 21.9553 19.6306V20.7928H24.2798C24.5881 20.7928 24.8837 20.9153 25.1016 21.1332C25.3196 21.3512 25.4421 21.6468 25.4421 21.9551C25.4421 22.2633 25.3196 22.559 25.1016 22.7769C24.8837 22.9949 24.5881 23.1173 24.2798 23.1173H21.9553V24.2796C21.9553 24.5878 21.8328 24.8835 21.6149 25.1014C21.3969 25.3194 21.1013 25.4418 20.793 25.4418C20.4848 25.4418 20.1892 25.3194 19.9712 25.1014C19.7532 24.8835 19.6308 24.5878 19.6308 24.2796V23.1173H5.68374C5.37549 23.1173 5.07987 22.9949 4.8619 22.7769C4.64394 22.559 4.52148 22.2633 4.52148 21.9551Z" fill="#044B96"/>
</svg>
