<svg width="19" height="19" viewBox="0 0 19 19" fill="none" xmlns="http://www.w3.org/2000/svg">
<path d="M9.50019 0C4.26176 0 0.000244141 4.26187 0.000244141 9.50015C0.000244141 14.7387 4.26176 19 9.50019 19C14.7386 19 18.9999 14.7387 18.9999 9.50015C18.9999 4.26187 14.739 0 9.50019 0ZM6.56624 11.4254C6.72164 10.9483 6.55267 10.4286 6.14659 10.1331L2.49917 7.48345H7.00695C7.51003 7.48345 7.95155 7.1623 8.10715 6.6846L9.5005 2.3965L10.8929 6.6849C11.0493 7.1623 11.4911 7.48345 11.9927 7.48345H16.5008L12.8534 10.1331C12.4478 10.4286 12.2791 10.948 12.4336 11.4254L13.8269 15.7138L10.1795 13.0638C9.98096 12.9192 9.74621 12.8429 9.50055 12.8429C9.25489 12.8429 9.01903 12.9192 8.82061 13.0638L5.17319 15.7138L6.56624 11.4254Z" fill="#FFA723"/>
</svg>
