<svg width="30" height="30" viewBox="0 0 30 30" fill="none" xmlns="http://www.w3.org/2000/svg">
<path d="M2 5.81668C2 6.26239 2.37004 6.64357 2.80554 6.64357H6.48314L8.22421 18.5915C8.45311 20.1366 9.26886 21.1051 10.847 21.1051H23.5461C23.97 21.1051 24.34 20.7569 24.34 20.2894C24.34 19.8214 23.97 19.4732 23.5461 19.4732H11.0317C10.4115 19.4732 10.0307 19.0377 9.93279 18.3742L9.75868 17.2316H23.5675C25.1562 17.2316 25.9725 16.252 26.2009 14.6961L27.0714 8.93946C27.0945 8.80276 27.1091 8.66476 27.1151 8.52625C27.1151 8.00393 26.7232 7.64457 26.1247 7.64457H8.36582L8.14807 6.26286C8.03943 5.42482 7.73486 5 6.62521 5H2.80507C2.37004 5 2 5.38118 2 5.81668ZM9.93325 24.6309C9.93325 25.6213 10.717 26.3938 11.7068 26.3938C11.9389 26.3957 12.169 26.3515 12.3837 26.2635C12.5985 26.1756 12.7936 26.0458 12.9576 25.8818C13.1217 25.7177 13.2515 25.5226 13.3394 25.3078C13.4273 25.0931 13.4716 24.863 13.4697 24.6309C13.4707 24.3991 13.4258 24.1695 13.3375 23.9551C13.2493 23.7408 13.1195 23.5461 12.9556 23.3822C12.7917 23.2183 12.5969 23.0885 12.3826 23.0002C12.1683 22.912 11.9386 22.8671 11.7068 22.868C10.717 22.868 9.93325 23.6518 9.93325 24.6309ZM20.1076 24.6309C20.1076 25.6213 20.902 26.3938 21.8812 26.3938C22.8715 26.3938 23.6547 25.6213 23.6547 24.6309C23.6547 23.6513 22.8715 22.868 21.8812 22.868C20.902 22.868 20.1076 23.6518 20.1076 24.6309Z" fill="#044B96"/>
</svg>
