<svg width="53" height="53" viewBox="0 0 53 53" fill="none" xmlns="http://www.w3.org/2000/svg">
<path fill-rule="evenodd" clip-rule="evenodd" d="M4.4165 37.5417V17.6667C4.4165 14.5971 6.09042 11.6887 9.12688 9.38764C13.0511 6.41523 19.3625 4.41669 26.4998 4.41669L27.1668 4.42331C34.028 4.54256 40.07 6.50798 43.8706 9.38764C46.9093 11.6887 48.5832 14.5971 48.5832 17.6667V37.5417C48.5832 38.3256 48.1746 39.0124 47.5585 39.4055C46.7635 40.9381 45.518 42.3647 43.8706 43.6124C39.9486 46.5848 33.635 48.5834 26.4998 48.5834C25.2808 48.5834 24.2915 47.594 24.2915 46.375C24.2915 45.156 25.2808 44.1667 26.4998 44.1667C32.5264 44.1667 37.8904 42.6032 41.2029 40.0923C41.3531 39.9797 41.4966 39.8649 41.6358 39.75H37.5415C36.3203 39.75 35.3332 38.7607 35.3332 37.5417V24.2917C35.3332 23.0727 36.3203 22.0834 37.5415 22.0834H44.1665V17.6667C44.1665 15.8603 42.9917 14.2614 41.2029 12.9077C37.8904 10.3969 32.5264 8.83335 26.4998 8.83335C20.4733 8.83335 15.107 10.3969 11.7945 12.9077C10.008 14.2614 8.83317 15.8603 8.83317 17.6667V22.0834H15.4582C16.6772 22.0834 17.6665 23.0727 17.6665 24.2917V37.5417C17.6665 38.7607 16.6772 39.75 15.4582 39.75H6.62484C5.40363 39.75 4.4165 38.7607 4.4165 37.5417Z" fill="#044B96"/>
</svg>
