<svg width="21" height="21" viewBox="0 0 21 21" fill="none" xmlns="http://www.w3.org/2000/svg">
<path fill-rule="evenodd" clip-rule="evenodd" d="M10.5 20.3572C5.05595 20.3572 0.642822 15.944 0.642822 10.5C0.642822 5.05601 5.05595 0.642883 10.5 0.642883C15.944 0.642883 20.3571 5.05601 20.3571 10.5C20.3571 15.944 15.944 20.3572 10.5 20.3572ZM9.35818 7.1449H10.73C11.9904 7.1449 12.6238 7.80492 12.6238 8.84978C12.6238 9.9012 11.9904 10.5678 10.723 10.5678H9.35818V7.1449ZM11.0824 11.7437C12.8981 11.7437 14.0937 10.5156 14.0937 8.8432C14.0937 7.16462 12.9244 5.92344 11.1284 5.92344H7.91452V10.999H6.62693V11.7437H7.91411V13.0107H6.62693V13.7488H7.91411V15.1727H9.35736V13.7488H11.9769V13.0107H9.35736V11.7437H11.0824Z" fill="#45A550"/>
</svg>
